<svg xmlns="http://www.w3.org/2000/svg" viewBox="0 0 128 104" enable-background="new 0 0 128 104"><path fill="#272727" d="M128 12.3c-4.7 2.1-9.8 3.5-15.1 4.1 5.4-3.2 9.6-8.4 11.5-14.5-5.1 3-10.7 5.2-16.7 6.4C103 3.2 96.2 0 88.6 0 74.1 0 62.4 11.8 62.4 26.3c0 2.1.2 4.1.7 6C41.2 31.1 21.9 20.7 8.9 4.8 6.7 8.7 5.4 13.2 5.4 18c0 9.1 4.6 17.1 11.7 21.9-4.3-.1-8.4-1.3-11.9-3.3v.3c0 12.7 9.1 23.3 21.1 25.7-2.2.6-4.5.9-6.9.9-1.7 0-3.3-.2-4.9-.5 3.3 10.4 13 18 24.5 18.2-9 7-20.3 11.2-32.6 11.2-2.1 0-4.2-.1-6.3-.4 11.5 7.7 25.3 12 40.2 12 48.3 0 74.7-40 74.7-74.7 0-1.1 0-2.3-.1-3.4 5.1-3.7 9.6-8.3 13.1-13.6z"/></svg>